:FULLY-SPECIFIED
:FORCE-ALL-JOINTS-BE-3DOF
:DEGREES
3058
root -1.58731 15.946 -34.1902 1087.69 2.4641 1.70624
lfemur -35.0847 5.08032 -2.30334
ltibia 56.6566 0 0
lfoot -9.63222 -2.29379 0
ltoes -44.8014 0 0
rfemur -37.4845 -5.23867 25.5141
rtibia 61.4136 0 0
rfoot -19.952 -27.3913 0
rtoes -4.00779 0 0
lowerback 12.8795 0.493811 -2.02793
upperback -1.02308 0.475529 1.60874
thorax -8.37357 0.363227 2.77118
lowerneck 4.05942 -8.88123 -12.3564
upperneck -3.60522 -12.211 10.1102
head -0.331757 -6.17191 5.029
lclavicle -6.42414e-15 7.82697e-16 0
lhumerus 17.2254 -41.6862 86.1653
lradius 70.2638 0 0
lwrist -0.879646 0 0
lhand -24.8486 394.677 0
lfingers 7.12502 0 0
lthumb 3.26828 -654.022 0
rclavicle -6.59231e-15 5.21585e-16 0
rhumerus 25.2471 44.8144 -45.6485
rradius 105.491 0 0
rwrist -41.0171 0 0
rhand -7.12464 -388.378 0
rfingers 7.12502 0 0
rthumb 18.8746 297.989 0
3059
root -1.54877 15.9467 -34.1682 1087.59 2.9519 1.71828
lfemur -34.8269 4.8865 -2.47545
ltibia 56.1738 0 0
lfoot -10.1468 -2.50597 0
ltoes -45.2384 0 0
rfemur -37.1446 -5.15767 25.2959
rtibia 61.413 0 0
rfoot -19.9038 -27.1393 0
rtoes -4.22162 0 0
lowerback 12.8299 0.41164 -1.93538
upperback -1.01466 0.377035 1.55831
thorax -8.3283 0.309334 2.68387
lowerneck 3.92246 -8.70378 -12.1656
upperneck -3.51968 -11.9539 9.99686
head -0.331891 -6.04083 4.96528
lclavicle -6.74677e-15 7.91948e-16 0
lhumerus 15.7415 -41.9208 86.7982
lradius 70.59 0 0
lwrist -0.0509605 0 0
lhand -24.5368 394.926 0
lfingers 7.12502 0 0
lthumb 3.40331 -653.819 0
rclavicle -8.24307e-15 1.92555e-15 0
rhumerus 23.9988 44.9625 -46.6171
rradius 105.568 0 0
rwrist -40.5798 0 0
rhand -7.06319 -388.151 0
rfingers 7.12502 0 0
rthumb 18.7888 297.694 0
3060
root -1.5088 15.9498 -34.1449 1087.47 3.47583 1.83022
lfemur -34.5593 4.68527 -2.65415
ltibia 55.7042 0 0
lfoot -10.6522 -2.71434 0
ltoes -45.6134 0 0
rfemur -36.7881 -5.07274 25.067
rtibia 61.4123 0 0
rfoot -19.8674 -26.9491 0
rtoes -4.41024 0 0
lowerback 12.7869 0.33833 -1.92418
upperback -1.00768 0.277606 1.50822
thorax -8.2894 0.258805 2.64327
lowerneck 3.7991 -8.5415 -12.0987
upperneck -3.40522 -11.7252 9.95279
head -0.31024 -5.9245 4.93925
lclavicle -6.85807e-15 7.95139e-16 0
lhumerus 14.1995 -42.1646 87.4558
lradius 70.8897 0 0
lwrist 0.757836 0 0
lhand -24.256 395.15 0
lfingers 7.12502 0 0
lthumb 3.50384 -653.669 0
rclavicle -9.68061e-15 3.14818e-15 0
rhumerus 22.5327 45.1363 -47.7546
rradius 105.594 0 0
rwrist -40.1934 0 0
rhand -6.9947 -387.897 0
rfingers 7.12502 0 0
rthumb 18.7073 297.413 0
3061
root -1.47241 15.9537 -34.1229 1087.36 4.01931 1.86819
lfemur -34.285 4.47908 -2.83725
ltibia 55.2523 0 0
lfoot -11.1436 -2.91699 0
ltoes -45.9185 0 0
rfemur -36.4188 -4.98474 24.8299
rtibia 61.4118 0 0
rfoot -19.8444 -26.829 0
rtoes -4.57084 0 0
lowerback 12.7428 0.274619 -1.88107
upperback -1.01374 0.197986 1.48254
thorax -8.26542 0.217409 2.60675
lowerneck 3.75661 -8.40825 -11.9416
upperneck -3.32943 -11.5401 9.8082
head -0.319514 -5.83039 4.87393
lclavicle -6.8129e-15 8.29182e-16 0
lhumerus 12.6141 -42.4152 88.132
lradius 71.1578 0 0
lwrist 1.5368 0 0
lhand -24.0124 395.344 0
lfingers 7.12502 0 0
lthumb 3.56656 -653.574 0
rclavicle -1.08662e-14 4.15651e-15 0
rhumerus 20.8707 45.3333 -49.0441
rradius 105.668 0 0
rwrist -39.8638 0 0
rhand -6.92047 -387.622 0
rfingers 7.12502 0 0
rthumb 18.6308 297.15 0
